<?xml version="1.0" encoding="iso-8859-1"?>
<!-- Generator: Adobe Illustrator 19.0.0, SVG Export Plug-In . SVG Version: 6.00 Build 0)  -->
<svg version="1.1" id="Capa_1" xmlns="http://www.w3.org/2000/svg" xmlns:xlink="http://www.w3.org/1999/xlink" x="0px" y="0px"
	 viewBox="0 0 512 512" style="enable-background:new 0 0 512 512;" xml:space="preserve">
<g>
	<g>
		<path d="M233.709,97.414c-16.086,0-29.173,13.086-29.173,29.173c0,16.085,13.086,29.172,29.173,29.172
			c16.084,0.001,29.171-13.086,29.171-29.172C262.88,110.5,249.793,97.414,233.709,97.414z M233.709,140.758
			c-7.814,0.001-14.172-6.357-14.172-14.171s6.357-14.172,14.172-14.172c7.813,0,14.17,6.357,14.17,14.172
			C247.879,134.401,241.522,140.758,233.709,140.758z"/>
	</g>
</g>
<g>
	<g>
		<path d="M322.189,263.924l16.329-26.856c3.533-5.8,2.514-18.176-7.884-24.748c-72.579-45.865-74.082-47.115-74.082-47.115
			c-9.951-7.544-24.916-5.851-32.545,3.704l-23.895,29.932l-26.527,8.435c-11.971,2.277-19.908,12.955-17.464,24.152
			c2.781,12.754,17.455,18.767,26.963,15.992l34.793-10.153c5.477-1.015,10.237-3.699,13.985-8.397l9.444,40.627
			c-29.272,36.242-29.682,35.731-30.914,41.735l-16.03,54.033c-2.776,9.358,4.384,22.533,18.69,24.473
			c11.967,1.625,23.185-5.573,25.432-16.51l15.059-49.608l3.185-3.943l28.443,56.275c3.866,10.583,15.941,16.113,27.292,13.278
			c13.905-3.474,19.503-17.415,15.268-26.574l-40.107-86.694c0.074-0.973,0.074-1.951-0.004-2.928
			C299.753,281.376,316.951,276.592,322.189,263.924z M214.952,222.551c-0.691,0.114,1.439-0.477-35.573,10.324
			c-5.729,0.714-10.674-3.82-7.904-7.9c1.865-2.749,5.161-2.928,6.19-3.255c31.774-10.104,30.86-9.371,32.753-11.742l25.314-31.71
			c2.282-2.857,7.437-3.771,11.137-1.535c2.607,1.577,3.828,4.506,1.78,7.069C217.145,223.264,219.193,221.852,214.952,222.551z
			 M239.617,317.864c-16.656,54.871-15.679,51.553-15.801,52.232c-0.489,2.729-3.748,4.866-7.42,4.866
			c-4.377,0-7.813-2.863-7.501-5.933c17.09-57.607,16.061-54.045,16.177-54.692c0.281-1.571-1.22,0.645,30.206-38.263
			c1.451-1.796,1.994-4.161,1.471-6.411l-12.956-55.735c9.072-11.365,6.511-8.157,12.666-15.867
			c17.231,80.81,17.104,76.903,15.17,79.296C238.143,318.817,240.207,315.922,239.617,317.864z M313.468,371.427
			c-2.815,5.111-12.528,4.464-14.254-0.768c-0.274-0.83,1.748,3.274-32.144-63.784c6.645-8.228,5.122-6.342,11.654-14.43
			C316.474,374.044,314.813,368.987,313.468,371.427z M282.113,246.443l-3.488-16.358l10.723,6.399L282.113,246.443z
			 M293.691,256.026c13.57-18.68,14.75-19.121,13.897-23.283c-0.886-4.319-1.385-3.669-33.232-22.674
			c-1.097-5.145-0.613-2.876-3.837-17.994l52.101,32.926c2.053,1.297,3.012,3.198,2.6,5.065
			c-17.407,28.63-16.458,26.946-16.823,27.946C305.954,264.712,292.613,262.682,293.691,256.026z"/>
	</g>
</g>
<g>
	<g>
		<path d="M480.343,250.697L261.609,31.961c-2.929-2.929-7.678-2.929-10.606,0C17.587,265.374,30.069,251.408,30.069,256
			c0,1.989,0.79,3.897,2.197,5.303c233.414,233.414,219.448,220.933,224.04,220.933c4.438,0-1.466,4.573,97.855-94.749
			c2.929-2.929,2.929-7.678,0-10.607s-7.678-2.929-10.607,0l-87.249,87.25L48.176,256L256.305,47.871L464.434,256l-96.168,96.168
			c-2.929,2.929-2.929,7.678,0,10.607c2.929,2.929,7.678,2.929,10.606,0l101.472-101.473
			C483.272,258.374,483.272,253.625,480.343,250.697z"/>
	</g>
</g>
<g>
	<g>
		<path d="M500.486,228.221l-94.98-94.98c-2.929-2.929-7.678-2.929-10.607,0c-2.929,2.929-2.929,7.678,0,10.606l94.979,94.979
			c9.467,9.47,9.467,24.877,0.001,34.345L273.171,489.879c-9.488,9.49-24.85,9.49-34.341-0.001L22.125,273.171
			c-9.472-9.472-9.472-24.872,0-34.344L238.83,22.121c9.49-9.489,24.853-9.492,34.342,0l96.97,96.969
			c2.929,2.929,7.678,2.929,10.606,0c2.929-2.929,2.929-7.678,0-10.606l-96.969-96.969c-15.349-15.353-40.203-15.354-55.556-0.001
			L11.517,228.221c-15.317,15.317-15.317,40.24,0,55.557l216.706,216.706c15.351,15.352,40.204,15.354,55.555,0l216.708-216.707
			C515.799,268.462,515.799,243.539,500.486,228.221z"/>
	</g>
</g>
<g>
</g>
<g>
</g>
<g>
</g>
<g>
</g>
<g>
</g>
<g>
</g>
<g>
</g>
<g>
</g>
<g>
</g>
<g>
</g>
<g>
</g>
<g>
</g>
<g>
</g>
<g>
</g>
<g>
</g>
</svg>
